<svg xmlns="http://www.w3.org/2000/svg" version="1.1" xmlns:xlink="http://www.w3.org/1999/xlink" xmlns:svgjs="http://svgjs.dev/svgjs" width="128" height="128" viewBox="0 0 128 128"><g transform="matrix(0.8046875,0,0,0.8046875,12.760752631578946,21.71895266371269)"><svg viewBox="0 0 95 78" data-background-color="#ffffff" preserveAspectRatio="xMidYMid meet" height="105" width="128" xmlns="http://www.w3.org/2000/svg" xmlns:xlink="http://www.w3.org/1999/xlink"><g id="tight-bounds" transform="matrix(1,0,0,1,-0.24049999999999727,0.03226783222307006)"><svg viewBox="0 0 95.48099999999998 77.93546433555385" height="77.93546433555385" width="95.48099999999998"><g><svg viewBox="0 0 95.48099999999998 77.93546433555385" height="77.93546433555385" width="95.48099999999998"><g><svg viewBox="0 0 95.48099999999998 77.93546433555385" height="77.93546433555385" width="95.48099999999998"><g id="textblocktransform"><svg viewBox="0 0 95.48099999999998 77.93546433555385" height="77.93546433555385" width="95.48099999999998" id="textblock"><g><svg viewBox="0 0 95.48099999999998 77.93546433555385" height="77.93546433555385" width="95.48099999999998"><g><svg viewBox="0 0 95.48099999999998 77.93546433555385" height="77.93546433555385" width="95.48099999999998"><g><svg xmlns="http://www.w3.org/2000/svg" xmlns:xlink="http://www.w3.org/1999/xlink" version="1.1" x="0" y="0" viewBox="0 0 37.979 31" enable-background="new 0 0 38 31" xml:space="preserve" height="77.93546433555385" width="95.48099999999998" class="icon-icon-0" data-fill-palette-color="accent" id="icon-0"><path fill-rule="evenodd" clip-rule="evenodd" d="M34.098 24.095L34.082 31l-5.635-6.376H16.519c-3.548 0-6.425-2.877-6.425-6.426v-7.476c0-3.548 2.876-6.425 6.425-6.425h15.035c3.548 0 6.425 2.877 6.425 6.425v7.476C37.979 20.843 36.379 23.109 34.098 24.095zM8.023 10.703v5.354l-4.794 5.357-0.009-5.805C1.327 14.784 0 12.9 0 10.703V5.354C0 2.396 2.396 0 5.355 0h12.719c1.743 0 3.277 0.846 4.254 2.135H16.59C11.858 2.135 8.023 5.97 8.023 10.703z" fill="#005ec9" data-fill-palette-color="accent"></path></svg></g></svg></g></svg></g></svg></g></svg></g></svg></g><defs></defs></svg><rect width="95.48099999999998" height="77.93546433555385" fill="none" stroke="none" visibility="hidden"></rect></g></svg></g></svg>